<svg viewBox="0 0 21 21" fill="none" xmlns="http://www.w3.org/2000/svg">
  <symbol id="icon-floppy">
    <rect x="0.5" y="0.5" width="3" height="3" fill="black" />
    <rect x="0.5" y="3.5" width="3" height="3" fill="black" />
    <rect x="0.5" y="6.5" width="3" height="3" fill="black" />
    <rect x="0.5" y="9.5" width="3" height="3" fill="black" />
    <rect x="0.5" y="12.5" width="3" height="3" fill="black" />
    <rect x="0.5" y="15.5" width="3" height="3" fill="black" />
    <rect x="0.5" y="18.5" width="3" height="3" fill="black" />
    <rect x="0.5" y="21.5" width="3" height="3" fill="black" />
    <rect x="0.5" y="24.5" width="3" height="3" fill="black" />
    <rect x="0.5" y="27.5" width="3" height="3" fill="black" />
    <rect x="0.5" y="30.5" width="3" height="3" fill="black" />
    <rect x="0.5" y="33.5" width="3" height="3" fill="black" />
    <rect x="0.5" y="36.5" width="3" height="3" fill="black" />
    <rect x="33.5" y="0.5" width="3" height="3" transform="rotate(90 33.5 0.5)" fill="black" />
    <rect x="30.5" y="0.5" width="3" height="3" transform="rotate(90 30.5 0.5)" fill="black" />
    <rect x="27.5" y="0.5" width="3" height="3" transform="rotate(90 27.5 0.5)" fill="black" />
    <rect x="24.5" y="0.5" width="3" height="3" transform="rotate(90 24.5 0.5)" fill="black" />
    <rect x="21.5" y="0.5" width="3" height="3" transform="rotate(90 21.5 0.5)" fill="black" />
    <rect x="18.5" y="0.5" width="3" height="3" transform="rotate(90 18.5 0.5)" fill="black" />
    <rect x="15.5" y="0.5" width="3" height="3" transform="rotate(90 15.5 0.5)" fill="black" />
    <rect x="12.5" y="0.5" width="3" height="3" transform="rotate(90 12.5 0.5)" fill="black" />
    <rect x="9.5" y="0.5" width="3" height="3" transform="rotate(90 9.5 0.5)" fill="black" />
    <rect x="6.5" y="0.5" width="3" height="3" transform="rotate(90 6.5 0.5)" fill="black" />
    <rect x="36.5" y="3.5" width="3" height="3" transform="rotate(90 36.5 3.5)" fill="black" />
    <rect x="9.5" y="6.5" width="3" height="3" transform="rotate(90 9.5 6.5)" fill="black" />
    <rect x="9.5" y="3.5" width="3" height="3" transform="rotate(90 9.5 3.5)" fill="black" />
    <rect x="9.5" y="9.5" width="3" height="3" transform="rotate(90 9.5 9.5)" fill="black" />
    <rect x="30.5" y="6.5" width="3" height="3" transform="rotate(90 30.5 6.5)" fill="black" />
    <rect x="30.5" y="3.5" width="3" height="3" transform="rotate(90 30.5 3.5)" fill="black" />
    <rect x="30.5" y="9.5" width="3" height="3" transform="rotate(90 30.5 9.5)" fill="black" />
    <rect x="24.5" y="6.5" width="3" height="3" transform="rotate(90 24.5 6.5)" fill="black" />
    <rect x="24.5" y="3.5" width="3" height="3" transform="rotate(90 24.5 3.5)" fill="black" />
    <rect x="24.5" y="9.5" width="3" height="3" transform="rotate(90 24.5 9.5)" fill="black" />
    <rect x="30.5" y="12.5" width="3" height="3" transform="rotate(90 30.5 12.5)" fill="black" />
    <rect x="27.5" y="12.5" width="3" height="3" transform="rotate(90 27.5 12.5)" fill="black" />
    <rect x="24.5" y="12.5" width="3" height="3" transform="rotate(90 24.5 12.5)" fill="black" />
    <rect x="21.5" y="12.5" width="3" height="3" transform="rotate(90 21.5 12.5)" fill="black" />
    <rect x="18.5" y="12.5" width="3" height="3" transform="rotate(90 18.5 12.5)" fill="black" />
    <rect x="15.5" y="12.5" width="3" height="3" transform="rotate(90 15.5 12.5)" fill="black" />
    <rect x="12.5" y="12.5" width="3" height="3" transform="rotate(90 12.5 12.5)" fill="black" />
    <rect x="9.5" y="12.5" width="3" height="3" transform="rotate(90 9.5 12.5)" fill="black" />
    <rect x="33.5" y="21.5" width="3" height="3" transform="rotate(90 33.5 21.5)" fill="black" />
    <rect x="30.5" y="21.5" width="3" height="3" transform="rotate(90 30.5 21.5)" fill="black" />
    <rect x="27.5" y="21.5" width="3" height="3" transform="rotate(90 27.5 21.5)" fill="black" />
    <rect x="24.5" y="21.5" width="3" height="3" transform="rotate(90 24.5 21.5)" fill="black" />
    <rect x="21.5" y="21.5" width="3" height="3" transform="rotate(90 21.5 21.5)" fill="black" />
    <rect x="18.5" y="21.5" width="3" height="3" transform="rotate(90 18.5 21.5)" fill="black" />
    <rect x="15.5" y="21.5" width="3" height="3" transform="rotate(90 15.5 21.5)" fill="black" />
    <rect x="12.5" y="21.5" width="3" height="3" transform="rotate(90 12.5 21.5)" fill="black" />
    <rect x="9.5" y="21.5" width="3" height="3" transform="rotate(90 9.5 21.5)" fill="black" />
    <rect x="33.5" y="24.5" width="3" height="3" transform="rotate(90 33.5 24.5)" fill="black" />
    <rect x="9.5" y="24.5" width="3" height="3" transform="rotate(90 9.5 24.5)" fill="black" />
    <rect x="33.5" y="27.5" width="3" height="3" transform="rotate(90 33.5 27.5)" fill="black" />
    <rect x="9.5" y="27.5" width="3" height="3" transform="rotate(90 9.5 27.5)" fill="black" />
    <rect x="33.5" y="30.5" width="3" height="3" transform="rotate(90 33.5 30.5)" fill="black" />
    <rect x="9.5" y="30.5" width="3" height="3" transform="rotate(90 9.5 30.5)" fill="black" />
    <rect x="9.5" y="33.5" width="3" height="3" transform="rotate(90 9.5 33.5)" fill="black" />
    <rect x="33.5" y="33.5" width="3" height="3" transform="rotate(90 33.5 33.5)" fill="black" />
    <rect x="36.5" y="36.5" width="3" height="3" transform="rotate(90 36.5 36.5)" fill="black" />
    <rect x="33.5" y="36.5" width="3" height="3" transform="rotate(90 33.5 36.5)" fill="black" />
    <rect x="30.5" y="36.5" width="3" height="3" transform="rotate(90 30.5 36.5)" fill="black" />
    <rect x="27.5" y="36.5" width="3" height="3" transform="rotate(90 27.5 36.5)" fill="black" />
    <rect x="24.5" y="36.5" width="3" height="3" transform="rotate(90 24.5 36.5)" fill="black" />
    <rect x="21.5" y="36.5" width="3" height="3" transform="rotate(90 21.5 36.5)" fill="black" />
    <rect x="18.5" y="36.5" width="3" height="3" transform="rotate(90 18.5 36.5)" fill="black" />
    <rect x="15.5" y="36.5" width="3" height="3" transform="rotate(90 15.5 36.5)" fill="black" />
    <rect x="12.5" y="36.5" width="3" height="3" transform="rotate(90 12.5 36.5)" fill="black" />
    <rect x="9.5" y="36.5" width="3" height="3" transform="rotate(90 9.5 36.5)" fill="black" />
    <rect x="6.5" y="36.5" width="3" height="3" transform="rotate(90 6.5 36.5)" fill="black" />
    <rect x="39.5" y="39.5" width="3" height="3" transform="rotate(-180 39.5 39.5)" fill="black" />
    <rect x="39.5" y="36.5" width="3" height="3" transform="rotate(-180 39.5 36.5)" fill="black" />
    <rect x="39.5" y="33.5" width="3" height="3" transform="rotate(-180 39.5 33.5)" fill="black" />
    <rect x="39.5" y="30.5" width="3" height="3" transform="rotate(-180 39.5 30.5)" fill="black" />
    <rect x="39.5" y="27.5" width="3" height="3" transform="rotate(-180 39.5 27.5)" fill="black" />
    <rect x="39.5" y="24.5" width="3" height="3" transform="rotate(-180 39.5 24.5)" fill="black" />
    <rect x="39.5" y="21.5" width="3" height="3" transform="rotate(-180 39.5 21.5)" fill="black" />
    <rect x="39.5" y="18.5" width="3" height="3" transform="rotate(-180 39.5 18.5)" fill="black" />
    <rect x="39.5" y="15.5" width="3" height="3" transform="rotate(-180 39.5 15.5)" fill="black" />
    <rect x="39.5" y="12.5" width="3" height="3" transform="rotate(-180 39.5 12.5)" fill="black" />
    <rect x="39.5" y="9.5" width="3" height="3" transform="rotate(-180 39.5 9.5)" fill="black" />


  </symbol>
  <symbol id="icon-floppy-small">
    <rect width="1.61538" height="1.61538" fill="var(--icon-color, --Themes-mainColor)" />
    <rect y="1.61523" width="1.61538" height="1.61538" fill="var(--icon-color, --Themes-mainColor)" />
    <rect y="3.23096" width="1.61538" height="1.61538" fill="var(--icon-color, --Themes-mainColor)" />
    <rect y="4.84619" width="1.61538" height="1.61538" fill="var(--icon-color, --Themes-mainColor)" />
    <rect y="6.46143" width="1.61538" height="1.61538" fill="var(--icon-color, --Themes-mainColor)" />
    <rect y="8.07715" width="1.61538" height="1.61538" fill="var(--icon-color, --Themes-mainColor)" />
    <rect y="9.69238" width="1.61538" height="1.61538" fill="var(--icon-color, --Themes-mainColor)" />
    <rect y="11.3076" width="1.61538" height="1.61538" fill="var(--icon-color, --Themes-mainColor)" />
    <rect y="12.9229" width="1.61538" height="1.61538" fill="var(--icon-color, --Themes-mainColor)" />
    <rect y="14.5386" width="1.61538" height="1.61538" fill="var(--icon-color, --Themes-mainColor)" />
    <rect y="16.1538" width="1.61538" height="1.61538" fill="var(--icon-color, --Themes-mainColor)" />
    <rect y="17.769" width="1.61538" height="1.61538" fill="var(--icon-color, --Themes-mainColor)" />
    <rect y="19.3848" width="1.61538" height="1.61538" fill="var(--icon-color, --Themes-mainColor)" />
    <rect x="17.7692" width="1.61538" height="1.61538" transform="rotate(90 17.7692 0)"
      fill="var(--icon-color, --Themes-mainColor)" />
    <rect x="16.1539" width="1.61538" height="1.61538" transform="rotate(90 16.1539 0)"
      fill="var(--icon-color, --Themes-mainColor)" />
    <rect x="14.5385" width="1.61538" height="1.61538" transform="rotate(90 14.5385 0)"
      fill="var(--icon-color, --Themes-mainColor)" />
    <rect x="12.9231" width="1.61538" height="1.61538" transform="rotate(90 12.9231 0)"
      fill="var(--icon-color, --Themes-mainColor)" />
    <rect x="11.3077" width="1.61538" height="1.61538" transform="rotate(90 11.3077 0)"
      fill="var(--icon-color, --Themes-mainColor)" />
    <rect x="9.69232" width="1.61538" height="1.61538" transform="rotate(90 9.69232 0)"
      fill="var(--icon-color, --Themes-mainColor)" />
    <rect x="8.0769" width="1.61538" height="1.61538" transform="rotate(90 8.0769 0)"
      fill="var(--icon-color, --Themes-mainColor)" />
    <rect x="6.46155" width="1.61538" height="1.61538" transform="rotate(90 6.46155 0)"
      fill="var(--icon-color, --Themes-mainColor)" />
    <rect x="4.84613" width="1.61538" height="1.61538" transform="rotate(90 4.84613 0)"
      fill="var(--icon-color, --Themes-mainColor)" />
    <rect x="3.23077" width="1.61538" height="1.61538" transform="rotate(90 3.23077 0)"
      fill="var(--icon-color, --Themes-mainColor)" />
    <rect x="19.3846" y="1.61523" width="1.61538" height="1.61538"
      transform="rotate(90 19.3846 1.61523)" fill="var(--icon-color, --Themes-mainColor)" />
    <rect x="4.84613" y="3.23096" width="1.61538" height="1.61538"
      transform="rotate(90 4.84613 3.23096)" fill="var(--icon-color, --Themes-mainColor)" />
    <rect x="4.84613" y="1.61523" width="1.61538" height="1.61538"
      transform="rotate(90 4.84613 1.61523)" fill="var(--icon-color, --Themes-mainColor)" />
    <rect x="4.84613" y="4.84619" width="1.61538" height="1.61538"
      transform="rotate(90 4.84613 4.84619)" fill="var(--icon-color, --Themes-mainColor)" />
    <rect x="16.1539" y="3.23096" width="1.61538" height="1.61538"
      transform="rotate(90 16.1539 3.23096)" fill="var(--icon-color, --Themes-mainColor)" />
    <rect x="16.1539" y="1.61523" width="1.61538" height="1.61538"
      transform="rotate(90 16.1539 1.61523)" fill="var(--icon-color, --Themes-mainColor)" />
    <rect x="16.1539" y="4.84619" width="1.61538" height="1.61538"
      transform="rotate(90 16.1539 4.84619)" fill="var(--icon-color, --Themes-mainColor)" />
    <rect x="12.9231" y="3.23096" width="1.61538" height="1.61538"
      transform="rotate(90 12.9231 3.23096)" fill="var(--icon-color, --Themes-mainColor)" />
    <rect x="12.9231" y="1.61523" width="1.61538" height="1.61538"
      transform="rotate(90 12.9231 1.61523)" fill="var(--icon-color, --Themes-mainColor)" />
    <rect x="12.9231" y="4.84619" width="1.61538" height="1.61538"
      transform="rotate(90 12.9231 4.84619)" fill="var(--icon-color, --Themes-mainColor)" />
    <rect x="16.1539" y="6.46143" width="1.61538" height="1.61538"
      transform="rotate(90 16.1539 6.46143)" fill="var(--icon-color, --Themes-mainColor)" />
    <rect x="14.5385" y="6.46143" width="1.61538" height="1.61538"
      transform="rotate(90 14.5385 6.46143)" fill="var(--icon-color, --Themes-mainColor)" />
    <rect x="12.9231" y="6.46143" width="1.61538" height="1.61538"
      transform="rotate(90 12.9231 6.46143)" fill="var(--icon-color, --Themes-mainColor)" />
    <rect x="11.3077" y="6.46143" width="1.61538" height="1.61538"
      transform="rotate(90 11.3077 6.46143)" fill="var(--icon-color, --Themes-mainColor)" />
    <rect x="9.69232" y="6.46143" width="1.61538" height="1.61538"
      transform="rotate(90 9.69232 6.46143)" fill="var(--icon-color, --Themes-mainColor)" />
    <rect x="8.0769" y="6.46143" width="1.61538" height="1.61538"
      transform="rotate(90 8.0769 6.46143)" fill="var(--icon-color, --Themes-mainColor)" />
    <rect x="6.46155" y="6.46143" width="1.61538" height="1.61538"
      transform="rotate(90 6.46155 6.46143)" fill="var(--icon-color, --Themes-mainColor)" />
    <rect x="4.84613" y="6.46143" width="1.61538" height="1.61538"
      transform="rotate(90 4.84613 6.46143)" fill="var(--icon-color, --Themes-mainColor)" />
    <rect x="17.7692" y="11.3076" width="1.61538" height="1.61538"
      transform="rotate(90 17.7692 11.3076)" fill="var(--icon-color, --Themes-mainColor)" />
    <rect x="16.1539" y="11.3076" width="1.61538" height="1.61538"
      transform="rotate(90 16.1539 11.3076)" fill="var(--icon-color, --Themes-mainColor)" />
    <rect x="14.5385" y="11.3076" width="1.61538" height="1.61538"
      transform="rotate(90 14.5385 11.3076)" fill="var(--icon-color, --Themes-mainColor)" />
    <rect x="12.9231" y="11.3076" width="1.61538" height="1.61538"
      transform="rotate(90 12.9231 11.3076)" fill="var(--icon-color, --Themes-mainColor)" />
    <rect x="11.3077" y="11.3076" width="1.61538" height="1.61538"
      transform="rotate(90 11.3077 11.3076)" fill="var(--icon-color, --Themes-mainColor)" />
    <rect x="9.69232" y="11.3076" width="1.61538" height="1.61538"
      transform="rotate(90 9.69232 11.3076)" fill="var(--icon-color, --Themes-mainColor)" />
    <rect x="8.0769" y="11.3076" width="1.61538" height="1.61538"
      transform="rotate(90 8.0769 11.3076)" fill="var(--icon-color, --Themes-mainColor)" />
    <rect x="6.46155" y="11.3076" width="1.61538" height="1.61538"
      transform="rotate(90 6.46155 11.3076)" fill="var(--icon-color, --Themes-mainColor)" />
    <rect x="4.84613" y="11.3076" width="1.61538" height="1.61538"
      transform="rotate(90 4.84613 11.3076)" fill="var(--icon-color, --Themes-mainColor)" />
    <rect x="17.7692" y="12.9229" width="1.61538" height="1.61538"
      transform="rotate(90 17.7692 12.9229)" fill="var(--icon-color, --Themes-mainColor)" />
    <rect x="4.84613" y="12.9229" width="1.61538" height="1.61538"
      transform="rotate(90 4.84613 12.9229)" fill="var(--icon-color, --Themes-mainColor)" />
    <rect x="17.7692" y="14.5386" width="1.61538" height="1.61538"
      transform="rotate(90 17.7692 14.5386)" fill="var(--icon-color, --Themes-mainColor)" />
    <rect x="4.84613" y="14.5386" width="1.61538" height="1.61538"
      transform="rotate(90 4.84613 14.5386)" fill="var(--icon-color, --Themes-mainColor)" />
    <rect x="17.7692" y="16.1538" width="1.61538" height="1.61538"
      transform="rotate(90 17.7692 16.1538)" fill="var(--icon-color, --Themes-mainColor)" />
    <rect x="4.84613" y="16.1538" width="1.61538" height="1.61538"
      transform="rotate(90 4.84613 16.1538)" fill="var(--icon-color, --Themes-mainColor)" />
    <rect x="4.84613" y="17.769" width="1.61538" height="1.61538"
      transform="rotate(90 4.84613 17.769)" fill="var(--icon-color, --Themes-mainColor)" />
    <rect x="17.7692" y="17.769" width="1.61538" height="1.61538"
      transform="rotate(90 17.7692 17.769)" fill="var(--icon-color, --Themes-mainColor)" />
    <rect x="19.3846" y="19.3848" width="1.61538" height="1.61538"
      transform="rotate(90 19.3846 19.3848)" fill="var(--icon-color, --Themes-mainColor)" />
    <rect x="17.7692" y="19.3848" width="1.61538" height="1.61538"
      transform="rotate(90 17.7692 19.3848)" fill="var(--icon-color, --Themes-mainColor)" />
    <rect x="16.1539" y="19.3848" width="1.61538" height="1.61538"
      transform="rotate(90 16.1539 19.3848)" fill="var(--icon-color, --Themes-mainColor)" />
    <rect x="14.5385" y="19.3848" width="1.61538" height="1.61538"
      transform="rotate(90 14.5385 19.3848)" fill="var(--icon-color, --Themes-mainColor)" />
    <rect x="12.9231" y="19.3848" width="1.61538" height="1.61538"
      transform="rotate(90 12.9231 19.3848)" fill="var(--icon-color, --Themes-mainColor)" />
    <rect x="11.3077" y="19.3848" width="1.61538" height="1.61538"
      transform="rotate(90 11.3077 19.3848)" fill="var(--icon-color, --Themes-mainColor)" />
    <rect x="9.69232" y="19.3848" width="1.61538" height="1.61538"
      transform="rotate(90 9.69232 19.3848)" fill="var(--icon-color, --Themes-mainColor)" />
    <rect x="8.0769" y="19.3848" width="1.61538" height="1.61538"
      transform="rotate(90 8.0769 19.3848)" fill="var(--icon-color, --Themes-mainColor)" />
    <rect x="6.46155" y="19.3848" width="1.61538" height="1.61538"
      transform="rotate(90 6.46155 19.3848)" fill="var(--icon-color, --Themes-mainColor)" />
    <rect x="4.84613" y="19.3848" width="1.61538" height="1.61538"
      transform="rotate(90 4.84613 19.3848)" fill="var(--icon-color, --Themes-mainColor)" />
    <rect x="3.23077" y="19.3848" width="1.61538" height="1.61538"
      transform="rotate(90 3.23077 19.3848)" fill="var(--icon-color, --Themes-mainColor)" />
    <rect x="21" y="21" width="1.61538" height="1.61538" transform="rotate(-180 21 21)"
      fill="var(--icon-color, --Themes-mainColor)" />
    <rect x="21" y="19.3848" width="1.61538" height="1.61538" transform="rotate(-180 21 19.3848)"
      fill="var(--icon-color, --Themes-mainColor)" />
    <rect x="21" y="17.769" width="1.61538" height="1.61538" transform="rotate(-180 21 17.769)"
      fill="var(--icon-color, --Themes-mainColor)" />
    <rect x="21" y="16.1538" width="1.61538" height="1.61538" transform="rotate(-180 21 16.1538)"
      fill="var(--icon-color, --Themes-mainColor)" />
    <rect x="21" y="14.5386" width="1.61538" height="1.61538" transform="rotate(-180 21 14.5386)"
      fill="var(--icon-color, --Themes-mainColor)" />
    <rect x="21" y="12.9229" width="1.61538" height="1.61538" transform="rotate(-180 21 12.9229)"
      fill="var(--icon-color, --Themes-mainColor)" />
    <rect x="21" y="11.3076" width="1.61538" height="1.61538" transform="rotate(-180 21 11.3076)"
      fill="var(--icon-color, --Themes-mainColor)" />
    <rect x="21" y="9.69238" width="1.61538" height="1.61538" transform="rotate(-180 21 9.69238)"
      fill="var(--icon-color, --Themes-mainColor)" />
    <rect x="21" y="8.07715" width="1.61538" height="1.61538" transform="rotate(-180 21 8.07715)"
      fill="var(--icon-color, --Themes-mainColor)" />
    <rect x="21" y="6.46143" width="1.61538" height="1.61538" transform="rotate(-180 21 6.46143)"
      fill="var(--icon-color, --Themes-mainColor)" />
    <rect x="21" y="4.84619" width="1.61538" height="1.61538" transform="rotate(-180 21 4.84619)"
      fill="var(--icon-color, --Themes-mainColor)" />

  </symbol>
</svg>