<svg width="456" height="108" viewBox="0 0 456 108" fill="none" xmlns="http://www.w3.org/2000/svg">
<path d="M58.375 105.125V102.25H55.5V99.375H61.25V102.25H69.875V96.5H61.25V93.625H69.875V87.875H61.25V90.75H55.5V87.875H58.375V85H72.75V87.875H75.625V93.625H72.75V96.5H75.625V102.25H72.75V105.125H58.375ZM78.5 105.125V90.75H81.375V87.875H84.25V85H92.875V87.875H95.75V90.75H98.625V105.125H92.875V99.375H84.25V105.125H78.5ZM84.25 96.5H92.875V90.75H90V87.875H87.125V90.75H84.25V96.5ZM110.125 90.75H113V93.625H115.875V96.5H118.75V102.25H121.625V105.125H115.875V102.25H113V96.5H107.25V105.125H101.5V85H107.25V93.625H110.125V90.75ZM121.625 85V87.875H118.75V90.75H113V87.875H115.875V85H121.625ZM124.5 105.125V85H141.75V87.875H144.625V96.5H141.75V99.375H130.25V105.125H124.5ZM130.25 96.5H138.875V87.875H130.25V96.5ZM147.5 105.125V85H153.25V90.75H159V105.125H147.5ZM161.875 105.125V85H167.625V105.125H161.875ZM153.25 102.25H156.125V93.625H153.25V102.25ZM170.5 105.125V85H187.75V87.875H190.625V93.625H187.75V96.5H190.625V102.25H187.75V105.125H170.5ZM176.25 93.625H184.875V87.875H176.25V93.625ZM176.25 102.25H184.875V96.5H176.25V102.25ZM193.5 105.125V90.75H196.375V87.875H199.25V85H207.875V87.875H210.75V90.75H213.625V105.125H207.875V99.375H199.25V105.125H193.5ZM199.25 96.5H207.875V90.75H205V87.875H202.125V90.75H199.25V96.5ZM216.5 105.125V85H219.375V93.625H222.25V87.875H225.125V85H233.75V87.875H236.625V102.25H233.75V105.125H225.125V102.25H222.25V96.5H219.375V105.125H216.5ZM228 102.25H230.875V87.875H228V102.25ZM256.75 108V105.125H239.5V85H245.25V102.25H248.125V85H251V102.25H253.875V85H259.625V102.25H262.5V108H256.75ZM262.5 105.125V85H268.25V96.5H271.125V93.625H274V90.75H276.875V85H282.625V105.125H276.875V96.5H274V99.375H271.125V102.25H268.25V105.125H262.5ZM288.375 87.875V85H302.75V87.875H288.375ZM285.5 105.125V90.75H291.25V99.375H294.125V96.5H297V93.625H299.875V90.75H305.625V105.125H299.875V99.375H297V102.25H294.125V105.125H285.5ZM340.125 105.125V87.875H334.375V85H351.625V87.875H345.875V105.125H340.125ZM354.5 105.125V85H374.625V87.875H360.25V93.625H371.75V96.5H360.25V102.25H374.625V105.125H354.5ZM380.375 105.125V85H397.625V90.75H394.75V87.875H386.125V105.125H380.375Z" fill="black"/>
<path d="M33 56.875V48.75H24.875V40.625H16.75V32.5H8.625V24.375H16.75V16.25H24.875V8.125H33V0H49.25V8.125H41.125V16.25H33V24.375H24.875V32.5H33V40.625H41.125V48.75H49.25V56.875H33ZM122.375 0V8.125H114.25V0H122.375ZM106.125 8.125H114.25V16.25H106.125V8.125ZM98 16.25H106.125V24.375H98V16.25ZM89.875 24.375H98V32.5H89.875V24.375ZM81.75 32.5H89.875V40.625H81.75V32.5ZM73.625 40.625H81.75V48.75H73.625V40.625ZM65.5 48.75H73.625V56.875H65.5V48.75ZM130.5 56.875V0H146.75V24.375H171.125V0H187.375V56.875H171.125V32.5H146.75V56.875H130.5ZM219.875 56.875V8.125H203.625V0H252.375V8.125H236.125V56.875H219.875ZM260.5 56.875V0H276.75V8.125H284.875V16.25H293V8.125H301.125V0H317.375V56.875H301.125V24.375H293V40.625H284.875V24.375H276.75V56.875H260.5ZM333.625 56.875V0H349.875V48.75H382.375V56.875H333.625ZM398.625 56.875V48.75H406.75V40.625H414.875V32.5H423V24.375H414.875V16.25H406.75V8.125H398.625V0H414.875V8.125H423V16.25H431.125V24.375H439.25V32.5H431.125V40.625H423V48.75H414.875V56.875H398.625Z" fill="black"/>
</svg>
